<svg xmlns="http://www.w3.org/2000/svg" viewBox="0 0 96 96" role="img" aria-label="Watchdog">
	<!-- Square app icon derived from static/watchdog-logo.svg: the same traced
	     2004-style WD monogram (joined W, accent segment nearest the D), set
	     white on the brand-blue badge for small-size legibility. -->
	<rect width="96" height="96" rx="22" fill="#2d74ff"/>
	<g transform="translate(3.832 23.376) scale(0.9328)">
		<g transform="translate(-557.49697 -495.59365)">
			<path fill="#ffffff" d="M 599.11537,516.40816 L 596.02809,526.09388 L 594.9939,516.27699 L 583.66625,515.86157 L 578.5739,525.4817 L 580.02132,515.73036 L 572.15708,515.46801 L 569.87227,536.04199 L 580.67719,536.04199 L 588.93103,519.33793 L 590.61235,536.04199 L 600.32416,536.04199 L 606.99052,516.69237 L 599.11537,516.40816" />
			<path fill="#ffffff" d="M 579.68810,518.00000 L 581.19119,507.83748 L 573.00102,507.83748 L 571.87225,518.00000 L 579.68810,518.00000" />
			<path fill="#ffffff" d="M 595.17691,518.00000 L 594.11723,507.9468 L 587.85319,507.9468 L 582.54646,518.00000 L 595.17691,518.00000" />
			<path fill="#fc0082" d="M 607.91558,514.00313 L 609.99922,507.9468 L 601.81087,507.9468 L 599.88255,514.00313 L 607.91558,514.00313" />
			<path fill="#ffffff" d="M 627.58873,507.9468 L 612.10033,507.9468 L 610.08435,514.00313 L 624.05548,514.00313 C 627.90994,514.11244 629.80552,517.26086 628.50033,521.15264 C 627.1755,525.11001 623.30758,528.12726 618.9042,528.32402 C 617.77616,528.38961 617.38475,528.49892 615.77545,528.36775 L 619.58844,517.12965 L 609.16184,516.75799 L 602.73592,536.04199 L 618.22214,536.04199 C 626.01217,536.04199 634.54356,529.89822 637.17613,522.00534 C 639.80397,514.09057 635.41151,507.9468 627.58873,507.9468" />
		</g>
	</g>
</svg>
